<?xml version="1.0" encoding="UTF-8"?>
<svg width="816" height="492.35" version="1.1" viewBox="0 0 816 492.35" xml:space="preserve" xmlns="http://www.w3.org/2000/svg"><defs><clipPath id="clipPath39"><path d="m0 369.26h612v-369.26h-612z"/></clipPath></defs><g transform="matrix(1.3333 0 0 -1.3333 0 492.35)"><g transform="translate(8.2508 3.9366)"><g clip-path="url(#clipPath39)"><g transform="translate(217.26 206.03)"><path d="m0 0c-0.423-6.229-5.816-10.936-12.044-10.513-6.229 0.423-10.936 5.816-10.513 12.044 0.423 6.23 5.816 10.936 12.045 10.513s10.935-5.815 10.512-12.044" fill="#75c7ce"/></g><g transform="translate(183.15 174.53)"><path d="m 0,0 c 10.04,-0.682 19.064,-1.572 26.335,-0.861 34.623,3.384 42.529,20.379 75.047,18.17 6.084,-0.413 19.439,-3.142 27.068,-10.675 -10.573,5.543 -14.47,7.059 -27.82,7.966 C 72.625,16.502 48.938,-5.068 20.935,-3.167 8.078,-2.294 0,0 0,0" fill="#424243"/></g><g transform="translate(183.84 184.72)"><path d="m0 0c47.263 0.957 57.556 30.488 95.348 27.922 37.793-2.567 59.472-37.035 64.537-42.705 5.066-5.671-26.475 29.856-59.974 31.991s-55.997-22.417-82.893-20.591c-12.35 0.839-17.018 3.383-17.018 3.383" fill="#75c7ce"/></g><g transform="translate(187.47 154.63)"><path d="m0 0v-6.791h3.567c1.134 0 2.11 0.468 2.929 1.405 0.457 0.63 0.685 1.272 0.685 1.925v0.154c0 1.032-0.496 1.916-1.488 2.657-0.614 0.457-1.469 0.685-2.563 0.685h-3.095zm-2.232 2.303h5.692c1.827 0 3.378-0.685 4.654-2.055 0.906-1.102 1.358-2.314 1.358-3.638 0-1.716-0.728-3.185-2.185-4.405-1.141-0.859-2.429-1.288-3.862-1.288h-3.425v-5.87l-0.024-0.035h-2.208l-0.036 0.035v17.221z" fill="#424243"/></g><g transform="translate(187.47 154.63)"><path d="m0 0v-6.791h3.567c1.134 0 2.11 0.468 2.929 1.405 0.457 0.63 0.685 1.272 0.685 1.925v0.154c0 1.032-0.496 1.916-1.488 2.657-0.614 0.457-1.469 0.685-2.563 0.685h-3.095zm-2.232 2.303h5.692c1.827 0 3.378-0.685 4.654-2.055 0.906-1.102 1.358-2.314 1.358-3.638 0-1.716-0.728-3.185-2.185-4.405-1.141-0.859-2.429-1.288-3.862-1.288h-3.425v-5.87l-0.024-0.035h-2.208l-0.036 0.035v17.221z" fill="none" stroke="#424243" stroke-miterlimit="10" stroke-width=".5"/></g><g transform="translate(199.73 156.94)"><path d="m0 0h2.208l0.024-0.035v-7.465h7.489v7.465l0.035 0.035h2.221l0.035-0.035v-17.221l-0.035-0.035h-2.209l-0.024 0.035v7.465h-7.512v-7.465l-0.024-0.035h-2.208l-0.035 0.035v17.221z" fill="#424243"/></g><g transform="translate(199.73 156.94)"><path d="m0 0h2.208l0.024-0.035v-7.465h7.489v7.465l0.035 0.035h2.221l0.035-0.035v-17.221l-0.035-0.035h-2.209l-0.024 0.035v7.465h-7.512v-7.465l-0.024-0.035h-2.208l-0.035 0.035v17.221z" fill="none" stroke="#424243" stroke-miterlimit="10" stroke-width=".5"/></g><g transform="translate(214.12 156.94)"><path d="m0 0h2.894c0.086-0.086 0.881-1.189 2.385-3.307l2.433-3.378c3.032 4.26 4.63 6.488 4.796 6.685h2.893v-0.012l-6.496-8.941v-8.303l-0.035-0.035h-2.339l-0.035 0.035v8.279c0 0.048-0.256 0.418-0.768 1.112l-5.728 7.853z" fill="#424243"/></g><g transform="translate(214.12 156.94)"><path d="m0 0h2.894c0.086-0.086 0.881-1.189 2.385-3.307l2.433-3.378c3.032 4.26 4.63 6.488 4.796 6.685h2.893v-0.012l-6.496-8.941v-8.303l-0.035-0.035h-2.339l-0.035 0.035v8.279c0 0.048-0.256 0.418-0.768 1.112l-5.728 7.853z" fill="none" stroke="#424243" stroke-miterlimit="10" stroke-width=".5"/></g><g transform="translate(236.55 157.14)"><path d="m0 0h0.201c0.897 0 1.779-0.217 2.645-0.65 0.276-0.149 0.548-0.323 0.815-0.52 0.134-0.094 0.347-0.275 0.638-0.543 0.307-0.33 0.527-0.598 0.661-0.803 0.119-0.173 0.225-0.346 0.319-0.519l-2.055-1.016c-0.063 0.141-0.212 0.346-0.449 0.613-0.724 0.772-1.622 1.159-2.692 1.159-1.056 0-1.91-0.312-2.563-0.934-0.245-0.267-0.398-0.48-0.461-0.638-0.189-0.362-0.284-0.736-0.284-1.122v-0.082c0-0.544 0.201-0.965 0.603-1.263 0.181-0.143 0.354-0.256 0.519-0.344 0.41-0.22 1.016-0.444 1.819-0.672 0.598-0.174 1.319-0.352 2.162-0.532 0.472-0.134 0.866-0.277 1.181-0.425 0.307-0.15 0.626-0.352 0.957-0.603 0.291-0.244 0.546-0.504 0.767-0.78 0.622-0.842 0.933-1.775 0.933-2.799v-0.058c0-1.008-0.303-1.965-0.909-2.871-0.102-0.164-0.287-0.389-0.555-0.672-0.362-0.332-0.662-0.568-0.898-0.709-0.252-0.158-0.527-0.3-0.827-0.426-0.826-0.346-1.681-0.52-2.563-0.52-1.362 0-2.61 0.403-3.744 1.206-0.204 0.157-0.417 0.337-0.637 0.543-0.315 0.314-0.536 0.558-0.662 0.732-0.244 0.33-0.433 0.622-0.567 0.874-0.142 0.268-0.22 0.429-0.236 0.484l2.067 0.956c0.126-0.283 0.299-0.574 0.52-0.873 0.102-0.15 0.259-0.327 0.472-0.532 0.307-0.275 0.555-0.464 0.744-0.567 0.638-0.354 1.307-0.532 2.008-0.532h0.083c0.7 0 1.37 0.174 2.008 0.52 0.172 0.104 0.354 0.236 0.543 0.402 0.212 0.213 0.37 0.406 0.472 0.578 0.268 0.465 0.402 0.946 0.402 1.442 0 0.803-0.339 1.449-1.016 1.937-0.197 0.125-0.374 0.22-0.531 0.284-0.276 0.125-0.705 0.244-1.288 0.353-1.653 0.379-2.858 0.764-3.614 1.158-1.67 0.827-2.504 2.078-2.504 3.756 0 1.117 0.366 2.134 1.099 3.047 0.236 0.283 0.488 0.531 0.755 0.744 0.323 0.244 0.607 0.43 0.851 0.555 0.268 0.142 0.59 0.272 0.968 0.391 0.614 0.18 1.229 0.271 1.843 0.271" fill="#424243"/></g><g transform="translate(236.55 157.14)"><path d="m0 0h0.201c0.897 0 1.779-0.217 2.645-0.65 0.276-0.149 0.548-0.323 0.815-0.52 0.134-0.094 0.347-0.275 0.638-0.543 0.307-0.33 0.527-0.598 0.661-0.803 0.119-0.173 0.225-0.346 0.319-0.519l-2.055-1.016c-0.063 0.141-0.212 0.346-0.449 0.613-0.724 0.772-1.622 1.159-2.692 1.159-1.056 0-1.91-0.312-2.563-0.934-0.245-0.267-0.398-0.48-0.461-0.638-0.189-0.362-0.284-0.736-0.284-1.122v-0.082c0-0.544 0.201-0.965 0.603-1.263 0.181-0.143 0.354-0.256 0.519-0.344 0.41-0.22 1.016-0.444 1.819-0.672 0.598-0.174 1.319-0.352 2.162-0.532 0.472-0.134 0.866-0.277 1.181-0.425 0.307-0.15 0.626-0.352 0.957-0.603 0.291-0.244 0.546-0.504 0.767-0.78 0.622-0.842 0.933-1.775 0.933-2.799v-0.058c0-1.008-0.303-1.965-0.909-2.871-0.102-0.164-0.287-0.389-0.555-0.672-0.362-0.332-0.662-0.568-0.898-0.709-0.252-0.158-0.527-0.3-0.827-0.426-0.826-0.346-1.681-0.52-2.563-0.52-1.362 0-2.61 0.403-3.744 1.206-0.204 0.157-0.417 0.337-0.637 0.543-0.315 0.314-0.536 0.558-0.662 0.732-0.244 0.33-0.433 0.622-0.567 0.874-0.142 0.268-0.22 0.429-0.236 0.484l2.067 0.956c0.126-0.283 0.299-0.574 0.52-0.873 0.102-0.15 0.259-0.327 0.472-0.532 0.307-0.275 0.555-0.464 0.744-0.567 0.638-0.354 1.307-0.532 2.008-0.532h0.083c0.7 0 1.37 0.174 2.008 0.52 0.172 0.104 0.354 0.236 0.543 0.402 0.212 0.213 0.37 0.406 0.472 0.578 0.268 0.465 0.402 0.946 0.402 1.442 0 0.803-0.339 1.449-1.016 1.937-0.197 0.125-0.374 0.22-0.531 0.284-0.276 0.125-0.705 0.244-1.288 0.353-1.653 0.379-2.858 0.764-3.614 1.158-1.67 0.827-2.504 2.078-2.504 3.756 0 1.117 0.366 2.134 1.099 3.047 0.236 0.283 0.488 0.531 0.755 0.744 0.323 0.244 0.607 0.43 0.851 0.555 0.268 0.142 0.59 0.272 0.968 0.391 0.614 0.18 1.229 0.271 1.843 0.271z" fill="none" stroke="#424243" stroke-miterlimit="10" stroke-width=".5"/></g><g transform="translate(245.19 156.94)"><path d="m0 0h2.256l0.012-0.012v-17.267l-0.012-0.012h-2.256l-0.012 0.012v17.267z" fill="#424243"/></g><g transform="translate(245.19 156.94)"><path d="m0 0h2.256l0.012-0.012v-17.267l-0.012-0.012h-2.256l-0.012 0.012v17.267z" fill="none" stroke="#424243" stroke-miterlimit="10" stroke-width=".5"/></g><g transform="translate(252.92 148.3)"><path d="m0 0c0-1.867 0.708-3.484 2.126-4.855 1.165-1.008 2.476-1.512 3.933-1.512 1.89 0 3.484 0.835 4.783 2.504 0.819 1.197 1.229 2.449 1.229 3.756v0.154c0 1.613-0.563 3.07-1.689 4.369-1.26 1.3-2.701 1.949-4.323 1.949-1.819 0-3.378-0.775-4.677-2.326-0.922-1.244-1.382-2.592-1.382-4.039m6.023 8.633h0.036c2.283 0 4.288-0.894 6.012-2.681 1.527-1.748 2.291-3.736 2.291-5.965 0-2.44-0.902-4.571-2.705-6.389-1.677-1.504-3.543-2.256-5.598-2.256-2.063 0-3.921 0.736-5.575 2.209-0.732 0.756-1.205 1.338-1.417 1.748-0.89 1.44-1.335 3-1.335 4.677v0.047c0 2.441 0.914 4.575 2.741 6.401l0.791 0.65c1.472 1.039 3.059 1.559 4.759 1.559" fill="#424243"/></g><g transform="translate(252.92 148.3)"><path d="m0 0c0-1.867 0.708-3.484 2.126-4.855 1.165-1.008 2.476-1.512 3.933-1.512 1.89 0 3.484 0.835 4.783 2.504 0.819 1.197 1.229 2.449 1.229 3.756v0.154c0 1.613-0.563 3.07-1.689 4.369-1.26 1.3-2.701 1.949-4.323 1.949-1.819 0-3.378-0.775-4.677-2.326-0.922-1.244-1.382-2.592-1.382-4.039zm6.023 8.633h0.036c2.283 0 4.288-0.894 6.012-2.681 1.527-1.748 2.291-3.736 2.291-5.965 0-2.44-0.902-4.571-2.705-6.389-1.677-1.504-3.543-2.256-5.598-2.256-2.063 0-3.921 0.736-5.575 2.209-0.732 0.756-1.205 1.338-1.417 1.748-0.89 1.44-1.335 3-1.335 4.677v0.047c0 2.441 0.914 4.575 2.741 6.401l0.791 0.65c1.472 1.039 3.059 1.559 4.759 1.559z" fill="none" stroke="#424243" stroke-miterlimit="10" stroke-width=".5"/></g><g transform="translate(268.54 156.94)"><path d="m0 0h11.457l0.011-0.012v-2.256l-0.011-0.011h-4.583v-15l-0.012-0.012h-2.267l-0.012 0.012v15h-4.583l-0.012 0.011v2.256z" fill="#424243"/></g><g transform="translate(268.54 156.94)"><path d="m0 0h11.457l0.011-0.012v-2.256l-0.011-0.011h-4.583v-15l-0.012-0.012h-2.267l-0.012 0.012v15h-4.583l-0.012 0.011v2.256z" fill="none" stroke="#424243" stroke-miterlimit="10" stroke-width=".5"/></g><g transform="translate(282.25 156.94)"><path d="m0 0h2.208l0.024-0.035v-7.465h7.489v7.465l0.035 0.035h2.221l0.035-0.035v-17.221l-0.035-0.035h-2.209l-0.024 0.035v7.465h-7.512v-7.465l-0.024-0.035h-2.208l-0.035 0.035v17.221z" fill="#424243"/></g><g transform="translate(282.25 156.94)"><path d="m0 0h2.208l0.024-0.035v-7.465h7.489v7.465l0.035 0.035h2.221l0.035-0.035v-17.221l-0.035-0.035h-2.209l-0.024 0.035v7.465h-7.512v-7.465l-0.024-0.035h-2.208l-0.035 0.035v17.221z" fill="none" stroke="#424243" stroke-miterlimit="10" stroke-width=".5"/></g><g transform="translate(298.34 156.94)"><path d="m0 0h9.283l0.012-0.012v-2.267h-7.027v-5.233h5.563l0.011-0.011v-2.245l-0.011-0.011h-5.563v-5.233h7.027v-2.267l-0.012-0.012h-9.283l-0.012 0.012v17.267z" fill="#424243"/></g><g transform="translate(298.34 156.94)"><path d="m0 0h9.283l0.012-0.012v-2.267h-7.027v-5.233h5.563l0.011-0.011v-2.245l-0.011-0.011h-5.563v-5.233h7.027v-2.267l-0.012-0.012h-9.283l-0.012 0.012v17.267z" fill="none" stroke="#424243" stroke-miterlimit="10" stroke-width=".5"/></g><g transform="translate(313.21 154.63)"><path d="m0 0v-6.791h3.567c1.134 0 2.11 0.468 2.929 1.405 0.457 0.63 0.685 1.272 0.685 1.925v0.154c0 1.032-0.496 1.916-1.488 2.657-0.614 0.457-1.469 0.685-2.563 0.685h-3.095zm-2.232 2.303h5.692c1.827 0 3.378-0.685 4.654-2.055 0.906-1.102 1.358-2.314 1.358-3.638 0-1.622-0.649-3.024-1.949-4.205-0.7-0.567-1.315-0.928-1.842-1.087 0-0.039 0.772-1.373 2.315-4.004l1.323-2.267-0.024-0.024h-2.681c-0.031 0-0.248 0.378-0.65 1.134-1.669 2.929-2.563 4.516-2.681 4.76h-3.283v-5.87l-0.024-0.035h-2.208l-0.036 0.035v17.221z" fill="#424243"/></g><g transform="translate(313.21 154.63)"><path d="m0 0v-6.791h3.567c1.134 0 2.11 0.468 2.929 1.405 0.457 0.63 0.685 1.272 0.685 1.925v0.154c0 1.032-0.496 1.916-1.488 2.657-0.614 0.457-1.469 0.685-2.563 0.685h-3.095zm-2.232 2.303h5.692c1.827 0 3.378-0.685 4.654-2.055 0.906-1.102 1.358-2.314 1.358-3.638 0-1.622-0.649-3.024-1.949-4.205-0.7-0.567-1.315-0.928-1.842-1.087 0-0.039 0.772-1.373 2.315-4.004l1.323-2.267-0.024-0.024h-2.681c-0.031 0-0.248 0.378-0.65 1.134-1.669 2.929-2.563 4.516-2.681 4.76h-3.283v-5.87l-0.024-0.035h-2.208l-0.036 0.035v17.221z" fill="none" stroke="#424243" stroke-miterlimit="10" stroke-width=".5"/></g><g transform="translate(328.55 145.66)"><path d="m0 0h6.331l-3.154 7.795c-0.024 0-0.457-1.063-1.299-3.189zm4.264 11.279c0.023 0 0.366-0.845 1.027-2.539l6-14.74-0.023-0.012h-2.469c-0.031 0-0.146 0.264-0.342 0.791l-1.193 2.93h-8.209l-1.5-3.721h-2.445v0.012l5.976 14.752 1.04 2.527z" fill="#424243"/></g><g transform="translate(328.55 145.66)"><path d="m0 0h6.331l-3.154 7.795c-0.024 0-0.457-1.063-1.299-3.189zm4.264 11.279c0.023 0 0.366-0.845 1.027-2.539l6-14.74-0.023-0.012h-2.469c-0.031 0-0.146 0.264-0.342 0.791l-1.193 2.93h-8.209l-1.5-3.721h-2.445v0.012l5.976 14.752 1.04 2.527z" fill="none" stroke="#424243" stroke-miterlimit="10" stroke-width=".5"/></g><g transform="translate(344.46 154.63)"><path d="m0 0v-6.791h3.567c1.134 0 2.11 0.468 2.929 1.405 0.457 0.63 0.685 1.272 0.685 1.925v0.154c0 1.032-0.496 1.916-1.488 2.657-0.614 0.457-1.469 0.685-2.563 0.685h-3.095zm-2.232 2.303h5.692c1.827 0 3.378-0.685 4.654-2.055 0.906-1.102 1.358-2.314 1.358-3.638 0-1.716-0.728-3.185-2.185-4.405-1.141-0.859-2.429-1.288-3.862-1.288h-3.425v-5.87l-0.024-0.035h-2.208l-0.036 0.035v17.221z" fill="#424243"/></g><g transform="translate(344.46 154.63)"><path d="m0 0v-6.791h3.567c1.134 0 2.11 0.468 2.929 1.405 0.457 0.63 0.685 1.272 0.685 1.925v0.154c0 1.032-0.496 1.916-1.488 2.657-0.614 0.457-1.469 0.685-2.563 0.685h-3.095zm-2.232 2.303h5.692c1.827 0 3.378-0.685 4.654-2.055 0.906-1.102 1.358-2.314 1.358-3.638 0-1.716-0.728-3.185-2.185-4.405-1.141-0.859-2.429-1.288-3.862-1.288h-3.425v-5.87l-0.024-0.035h-2.208l-0.036 0.035v17.221z" fill="none" stroke="#424243" stroke-miterlimit="10" stroke-width=".5"/></g><g transform="translate(356.69 156.94)"><path d="m0 0h2.256l0.012-0.012v-17.267l-0.012-0.012h-2.256l-0.012 0.012v17.267z" fill="#424243"/></g><g transform="translate(356.69 156.94)"><path d="m0 0h2.256l0.012-0.012v-17.267l-0.012-0.012h-2.256l-0.012 0.012v17.267z" fill="none" stroke="#424243" stroke-miterlimit="10" stroke-width=".5"/></g><g transform="translate(363.04 156.94)"><path d="m0 0h9.283l0.012-0.012v-2.267h-7.027v-5.233h5.563l0.011-0.011v-2.245l-0.011-0.011h-5.563v-5.233h7.027v-2.267l-0.012-0.012h-9.283l-0.012 0.012v17.267z" fill="#424243"/></g><g transform="translate(363.04 156.94)"><path d="m0 0h9.283l0.012-0.012v-2.267h-7.027v-5.233h5.563l0.011-0.011v-2.245l-0.011-0.011h-5.563v-5.233h7.027v-2.267l-0.012-0.012h-9.283l-0.012 0.012v17.267z" fill="none" stroke="#424243" stroke-miterlimit="10" stroke-width=".5"/></g><g transform="translate(383.91 154.63)"><path d="m0 0v-6.791h3.567c1.134 0 2.11 0.468 2.929 1.405 0.457 0.63 0.685 1.272 0.685 1.925v0.154c0 1.032-0.496 1.916-1.488 2.657-0.614 0.457-1.469 0.685-2.563 0.685h-3.095zm-2.232 2.303h5.692c1.827 0 3.378-0.685 4.654-2.055 0.906-1.102 1.358-2.314 1.358-3.638 0-1.716-0.728-3.185-2.185-4.405-1.141-0.859-2.429-1.288-3.862-1.288h-3.425v-5.87l-0.024-0.035h-2.208l-0.036 0.035v17.221z" fill="#424243"/></g><g transform="translate(383.91 154.63)"><path d="m0 0v-6.791h3.567c1.134 0 2.11 0.468 2.929 1.405 0.457 0.63 0.685 1.272 0.685 1.925v0.154c0 1.032-0.496 1.916-1.488 2.657-0.614 0.457-1.469 0.685-2.563 0.685h-3.095zm-2.232 2.303h5.692c1.827 0 3.378-0.685 4.654-2.055 0.906-1.102 1.358-2.314 1.358-3.638 0-1.716-0.728-3.185-2.185-4.405-1.141-0.859-2.429-1.288-3.862-1.288h-3.425v-5.87l-0.024-0.035h-2.208l-0.036 0.035v17.221z" fill="none" stroke="#424243" stroke-miterlimit="10" stroke-width=".5"/></g><g transform="translate(398.4 154.63)"><path d="m0 0v-6.791h3.567c1.134 0 2.11 0.468 2.929 1.405 0.457 0.63 0.685 1.272 0.685 1.925v0.154c0 1.032-0.496 1.916-1.488 2.657-0.614 0.457-1.469 0.685-2.563 0.685h-3.095zm-2.232 2.303h5.692c1.827 0 3.378-0.685 4.654-2.055 0.906-1.102 1.358-2.314 1.358-3.638 0-1.622-0.649-3.024-1.949-4.205-0.7-0.567-1.315-0.928-1.842-1.087 0-0.039 0.772-1.373 2.315-4.004l1.323-2.267-0.024-0.024h-2.681c-0.031 0-0.248 0.378-0.65 1.134-1.669 2.929-2.563 4.516-2.681 4.76h-3.283v-5.87l-0.024-0.035h-2.208l-0.036 0.035v17.221z" fill="#424243"/></g><g transform="translate(398.4 154.63)"><path d="m0 0v-6.791h3.567c1.134 0 2.11 0.468 2.929 1.405 0.457 0.63 0.685 1.272 0.685 1.925v0.154c0 1.032-0.496 1.916-1.488 2.657-0.614 0.457-1.469 0.685-2.563 0.685h-3.095zm-2.232 2.303h5.692c1.827 0 3.378-0.685 4.654-2.055 0.906-1.102 1.358-2.314 1.358-3.638 0-1.622-0.649-3.024-1.949-4.205-0.7-0.567-1.315-0.928-1.842-1.087 0-0.039 0.772-1.373 2.315-4.004l1.323-2.267-0.024-0.024h-2.681c-0.031 0-0.248 0.378-0.65 1.134-1.669 2.929-2.563 4.516-2.681 4.76h-3.283v-5.87l-0.024-0.035h-2.208l-0.036 0.035v17.221z" fill="none" stroke="#424243" stroke-miterlimit="10" stroke-width=".5"/></g><g transform="translate(413.74 145.66)"><path d="m0 0h6.331l-3.154 7.795c-0.024 0-0.457-1.063-1.299-3.189zm4.264 11.279c0.023 0 0.366-0.845 1.027-2.539l6-14.74-0.023-0.012h-2.469c-0.031 0-0.146 0.264-0.342 0.791l-1.193 2.93h-8.209l-1.5-3.721h-2.445v0.012l5.976 14.752 1.04 2.527z" fill="#424243"/></g><g transform="translate(413.74 145.66)"><path d="m0 0h6.331l-3.154 7.795c-0.024 0-0.457-1.063-1.299-3.189zm4.264 11.279c0.023 0 0.366-0.845 1.027-2.539l6-14.74-0.023-0.012h-2.469c-0.031 0-0.146 0.264-0.342 0.791l-1.193 2.93h-8.209l-1.5-3.721h-2.445v0.012l5.976 14.752 1.04 2.527z" fill="none" stroke="#424243" stroke-miterlimit="10" stroke-width=".5"/></g><g transform="translate(429.23 156.94)"><path d="m0 0 4.784-6.685c0.306 0.394 1.901 2.619 4.783 6.673l0.023 0.012h2.906v-0.035l-6.082-8.326 6.483-8.895v-0.035h-2.893c-0.071 0.078-1.351 1.862-3.838 5.351-0.874 1.211-1.324 1.842-1.347 1.889h-0.012l-5.208-7.24h-2.87l-0.036 0.035 6.284 8.599 0.212 0.284-6.095 8.361 0.012 0.012z" fill="#424243"/></g><g transform="translate(429.23 156.94)"><path d="m0 0 4.784-6.685c0.306 0.394 1.901 2.619 4.783 6.673l0.023 0.012h2.906v-0.035l-6.082-8.326 6.483-8.895v-0.035h-2.893c-0.071 0.078-1.351 1.862-3.838 5.351-0.874 1.211-1.324 1.842-1.347 1.889h-0.012l-5.208-7.24h-2.87l-0.036 0.035 6.284 8.599 0.212 0.284-6.095 8.361 0.012 0.012z" fill="none" stroke="#424243" stroke-miterlimit="10" stroke-width=".5"/></g><g transform="translate(444.75 156.94)"><path d="m0 0h2.256l0.012-0.012v-17.267l-0.012-0.012h-2.256l-0.012 0.012v17.267z" fill="#424243"/></g><g transform="translate(444.75 156.94)"><path d="m0 0h2.256l0.012-0.012v-17.267l-0.012-0.012h-2.256l-0.012 0.012v17.267z" fill="none" stroke="#424243" stroke-miterlimit="10" stroke-width=".5"/></g><g transform="translate(455.77 157.14)"><path d="m0 0h0.201c0.897 0 1.779-0.217 2.645-0.65 0.276-0.149 0.548-0.323 0.815-0.52 0.134-0.094 0.347-0.275 0.638-0.543 0.307-0.33 0.527-0.598 0.661-0.803 0.119-0.173 0.225-0.346 0.319-0.519l-2.055-1.016c-0.063 0.141-0.212 0.346-0.449 0.613-0.724 0.772-1.622 1.159-2.692 1.159-1.056 0-1.91-0.312-2.563-0.934-0.245-0.267-0.398-0.48-0.461-0.638-0.189-0.362-0.284-0.736-0.284-1.122v-0.082c0-0.544 0.201-0.965 0.603-1.263 0.181-0.143 0.354-0.256 0.519-0.344 0.41-0.22 1.016-0.444 1.819-0.672 0.598-0.174 1.319-0.352 2.162-0.532 0.472-0.134 0.866-0.277 1.181-0.425 0.307-0.15 0.626-0.352 0.957-0.603 0.291-0.244 0.546-0.504 0.767-0.78 0.622-0.842 0.933-1.775 0.933-2.799v-0.058c0-1.008-0.303-1.965-0.909-2.871-0.102-0.164-0.287-0.389-0.555-0.672-0.362-0.332-0.662-0.568-0.898-0.709-0.252-0.158-0.527-0.3-0.827-0.426-0.826-0.346-1.681-0.52-2.563-0.52-1.362 0-2.61 0.403-3.744 1.206-0.204 0.157-0.417 0.337-0.637 0.543-0.315 0.314-0.536 0.558-0.662 0.732-0.244 0.33-0.433 0.622-0.567 0.874-0.142 0.268-0.22 0.429-0.236 0.484l2.067 0.956c0.126-0.283 0.299-0.574 0.52-0.873 0.102-0.15 0.259-0.327 0.472-0.532 0.307-0.275 0.555-0.464 0.744-0.567 0.638-0.354 1.307-0.532 2.008-0.532h0.083c0.7 0 1.37 0.174 2.008 0.52 0.172 0.104 0.354 0.236 0.543 0.402 0.212 0.213 0.37 0.406 0.472 0.578 0.268 0.465 0.402 0.946 0.402 1.442 0 0.803-0.339 1.449-1.016 1.937-0.197 0.125-0.374 0.22-0.531 0.284-0.276 0.125-0.705 0.244-1.288 0.353-1.653 0.379-2.858 0.764-3.614 1.158-1.67 0.827-2.504 2.078-2.504 3.756 0 1.117 0.366 2.134 1.099 3.047 0.236 0.283 0.488 0.531 0.755 0.744 0.323 0.244 0.607 0.43 0.851 0.555 0.268 0.142 0.59 0.272 0.968 0.391 0.614 0.18 1.229 0.271 1.843 0.271" fill="#424243"/></g><g transform="translate(455.77 157.14)"><path d="m0 0h0.201c0.897 0 1.779-0.217 2.645-0.65 0.276-0.149 0.548-0.323 0.815-0.52 0.134-0.094 0.347-0.275 0.638-0.543 0.307-0.33 0.527-0.598 0.661-0.803 0.119-0.173 0.225-0.346 0.319-0.519l-2.055-1.016c-0.063 0.141-0.212 0.346-0.449 0.613-0.724 0.772-1.622 1.159-2.692 1.159-1.056 0-1.91-0.312-2.563-0.934-0.245-0.267-0.398-0.48-0.461-0.638-0.189-0.362-0.284-0.736-0.284-1.122v-0.082c0-0.544 0.201-0.965 0.603-1.263 0.181-0.143 0.354-0.256 0.519-0.344 0.41-0.22 1.016-0.444 1.819-0.672 0.598-0.174 1.319-0.352 2.162-0.532 0.472-0.134 0.866-0.277 1.181-0.425 0.307-0.15 0.626-0.352 0.957-0.603 0.291-0.244 0.546-0.504 0.767-0.78 0.622-0.842 0.933-1.775 0.933-2.799v-0.058c0-1.008-0.303-1.965-0.909-2.871-0.102-0.164-0.287-0.389-0.555-0.672-0.362-0.332-0.662-0.568-0.898-0.709-0.252-0.158-0.527-0.3-0.827-0.426-0.826-0.346-1.681-0.52-2.563-0.52-1.362 0-2.61 0.403-3.744 1.206-0.204 0.157-0.417 0.337-0.637 0.543-0.315 0.314-0.536 0.558-0.662 0.732-0.244 0.33-0.433 0.622-0.567 0.874-0.142 0.268-0.22 0.429-0.236 0.484l2.067 0.956c0.126-0.283 0.299-0.574 0.52-0.873 0.102-0.15 0.259-0.327 0.472-0.532 0.307-0.275 0.555-0.464 0.744-0.567 0.638-0.354 1.307-0.532 2.008-0.532h0.083c0.7 0 1.37 0.174 2.008 0.52 0.172 0.104 0.354 0.236 0.543 0.402 0.212 0.213 0.37 0.406 0.472 0.578 0.268 0.465 0.402 0.946 0.402 1.442 0 0.803-0.339 1.449-1.016 1.937-0.197 0.125-0.374 0.22-0.531 0.284-0.276 0.125-0.705 0.244-1.288 0.353-1.653 0.379-2.858 0.764-3.614 1.158-1.67 0.827-2.504 2.078-2.504 3.756 0 1.117 0.366 2.134 1.099 3.047 0.236 0.283 0.488 0.531 0.755 0.744 0.323 0.244 0.607 0.43 0.851 0.555 0.268 0.142 0.59 0.272 0.968 0.391 0.614 0.18 1.229 0.271 1.843 0.271z" fill="none" stroke="#424243" stroke-miterlimit="10" stroke-width=".5"/></g><g transform="translate(189.89 128.4)"><path d="m0 0h0.201c0.897 0 1.779-0.217 2.645-0.65 0.276-0.149 0.548-0.323 0.815-0.52 0.134-0.094 0.347-0.275 0.638-0.543 0.307-0.33 0.527-0.598 0.661-0.803 0.119-0.173 0.225-0.346 0.319-0.519l-2.055-1.016c-0.063 0.141-0.212 0.346-0.449 0.613-0.724 0.772-1.622 1.159-2.692 1.159-1.056 0-1.91-0.312-2.563-0.934-0.245-0.267-0.398-0.48-0.461-0.638-0.189-0.362-0.284-0.736-0.284-1.122v-0.082c0-0.544 0.201-0.965 0.603-1.263 0.181-0.143 0.354-0.256 0.519-0.344 0.41-0.22 1.016-0.444 1.819-0.672 0.598-0.174 1.319-0.352 2.162-0.532 0.472-0.134 0.866-0.277 1.181-0.425 0.307-0.15 0.626-0.352 0.957-0.603 0.291-0.244 0.546-0.504 0.767-0.78 0.622-0.842 0.933-1.775 0.933-2.799v-0.058c0-1.008-0.303-1.965-0.909-2.871-0.102-0.164-0.287-0.389-0.555-0.672-0.362-0.332-0.662-0.568-0.898-0.709-0.252-0.158-0.527-0.3-0.827-0.426-0.826-0.346-1.681-0.52-2.563-0.52-1.362 0-2.61 0.403-3.744 1.206-0.204 0.157-0.417 0.337-0.637 0.543-0.315 0.314-0.536 0.558-0.662 0.732-0.244 0.33-0.433 0.622-0.567 0.874-0.142 0.268-0.22 0.429-0.236 0.484l2.067 0.956c0.126-0.283 0.299-0.574 0.52-0.873 0.102-0.15 0.259-0.327 0.472-0.532 0.307-0.275 0.555-0.464 0.744-0.567 0.638-0.354 1.307-0.532 2.008-0.532h0.083c0.7 0 1.37 0.174 2.008 0.52 0.172 0.104 0.354 0.236 0.543 0.402 0.212 0.213 0.37 0.406 0.472 0.578 0.268 0.465 0.402 0.946 0.402 1.442 0 0.803-0.339 1.449-1.016 1.937-0.197 0.125-0.374 0.22-0.531 0.284-0.276 0.125-0.705 0.244-1.288 0.353-1.653 0.379-2.858 0.764-3.614 1.158-1.67 0.827-2.504 2.078-2.504 3.756 0 1.117 0.366 2.134 1.099 3.047 0.236 0.283 0.488 0.531 0.755 0.744 0.323 0.244 0.607 0.43 0.851 0.555 0.268 0.142 0.59 0.272 0.968 0.391 0.614 0.18 1.229 0.271 1.843 0.271" fill="#424243"/></g><g transform="translate(189.89 128.4)"><path d="m0 0h0.201c0.897 0 1.779-0.217 2.645-0.65 0.276-0.149 0.548-0.323 0.815-0.52 0.134-0.094 0.347-0.275 0.638-0.543 0.307-0.33 0.527-0.598 0.661-0.803 0.119-0.173 0.225-0.346 0.319-0.519l-2.055-1.016c-0.063 0.141-0.212 0.346-0.449 0.613-0.724 0.772-1.622 1.159-2.692 1.159-1.056 0-1.91-0.312-2.563-0.934-0.245-0.267-0.398-0.48-0.461-0.638-0.189-0.362-0.284-0.736-0.284-1.122v-0.082c0-0.544 0.201-0.965 0.603-1.263 0.181-0.143 0.354-0.256 0.519-0.344 0.41-0.22 1.016-0.444 1.819-0.672 0.598-0.174 1.319-0.352 2.162-0.532 0.472-0.134 0.866-0.277 1.181-0.425 0.307-0.15 0.626-0.352 0.957-0.603 0.291-0.244 0.546-0.504 0.767-0.78 0.622-0.842 0.933-1.775 0.933-2.799v-0.058c0-1.008-0.303-1.965-0.909-2.871-0.102-0.164-0.287-0.389-0.555-0.672-0.362-0.332-0.662-0.568-0.898-0.709-0.252-0.158-0.527-0.3-0.827-0.426-0.826-0.346-1.681-0.52-2.563-0.52-1.362 0-2.61 0.403-3.744 1.206-0.204 0.157-0.417 0.337-0.637 0.543-0.315 0.314-0.536 0.558-0.662 0.732-0.244 0.33-0.433 0.622-0.567 0.874-0.142 0.268-0.22 0.429-0.236 0.484l2.067 0.956c0.126-0.283 0.299-0.574 0.52-0.873 0.102-0.15 0.259-0.327 0.472-0.532 0.307-0.275 0.555-0.464 0.744-0.567 0.638-0.354 1.307-0.532 2.008-0.532h0.083c0.7 0 1.37 0.174 2.008 0.52 0.172 0.104 0.354 0.236 0.543 0.402 0.212 0.213 0.37 0.406 0.472 0.578 0.268 0.465 0.402 0.946 0.402 1.442 0 0.803-0.339 1.449-1.016 1.937-0.197 0.125-0.374 0.22-0.531 0.284-0.276 0.125-0.705 0.244-1.288 0.353-1.653 0.379-2.858 0.764-3.614 1.158-1.67 0.827-2.504 2.078-2.504 3.756 0 1.117 0.366 2.134 1.099 3.047 0.236 0.283 0.488 0.531 0.755 0.744 0.323 0.244 0.607 0.43 0.851 0.555 0.268 0.142 0.59 0.272 0.968 0.391 0.614 0.18 1.229 0.271 1.843 0.271z" fill="none" stroke="#424243" stroke-miterlimit="10" stroke-width=".5"/></g><g transform="translate(201.78 116.92)"><path d="m0 0h6.331l-3.154 7.795c-0.024 0-0.457-1.063-1.299-3.189zm4.264 11.279c0.023 0 0.366-0.845 1.027-2.539l6-14.74-0.023-0.012h-2.469c-0.031 0-0.146 0.264-0.342 0.791l-1.193 2.93h-8.209l-1.5-3.721h-2.445v0.012l5.976 14.752 1.04 2.527z" fill="#424243"/></g><g transform="translate(201.78 116.92)"><path d="m0 0h6.331l-3.154 7.795c-0.024 0-0.457-1.063-1.299-3.189zm4.264 11.279c0.023 0 0.366-0.845 1.027-2.539l6-14.74-0.023-0.012h-2.469c-0.031 0-0.146 0.264-0.342 0.791l-1.193 2.93h-8.209l-1.5-3.721h-2.445v0.012l5.976 14.752 1.04 2.527z" fill="none" stroke="#424243" stroke-miterlimit="10" stroke-width=".5"/></g><g transform="translate(215.43 128.2)"><path d="m0 0h9.283l0.012-0.012v-2.256l-0.012-0.011h-7.015v-5.233h5.704v-2.267h-5.704v-7.5l-0.012-0.012h-2.256l-0.012 0.012v17.267z" fill="#424243"/></g><g transform="translate(215.43 128.2)"><path d="m0 0h9.283l0.012-0.012v-2.256l-0.012-0.011h-7.015v-5.233h5.704v-2.267h-5.704v-7.5l-0.012-0.012h-2.256l-0.012 0.012v17.267z" fill="none" stroke="#424243" stroke-miterlimit="10" stroke-width=".5"/></g><g transform="translate(227.35 128.2)"><path d="m0 0h2.256l0.012-0.012v-17.267l-0.012-0.012h-2.256l-0.012 0.012v17.267z" fill="#424243"/></g><g transform="translate(227.35 128.2)"><path d="m0 0h2.256l0.012-0.012v-17.267l-0.012-0.012h-2.256l-0.012 0.012v17.267z" fill="none" stroke="#424243" stroke-miterlimit="10" stroke-width=".5"/></g><g transform="translate(233.72 128.2)"><path d="m0 0h2.457l8.291-12.354 0.756-1.146h0.012v13.465l0.035 0.035h2.22l0.036-0.035v-17.221l-0.036-0.035h-2.456c-0.425 0.598-1.996 2.945-4.712 7.039l-4.371 6.473v-13.477l-0.024-0.035h-2.208l-0.035 0.035v17.221z" fill="#424243"/></g><g transform="translate(233.72 128.2)"><path d="m0 0h2.457l8.291-12.354 0.756-1.146h0.012v13.465l0.035 0.035h2.22l0.036-0.035v-17.221l-0.036-0.035h-2.456c-0.425 0.598-1.996 2.945-4.712 7.039l-4.371 6.473v-13.477l-0.024-0.035h-2.208l-0.035 0.035v17.221z" fill="none" stroke="#424243" stroke-miterlimit="10" stroke-width=".5"/></g><g transform="translate(217.62 275.36)"><path d="m0 0c-44.857 0-81.221-36.363-81.221-81.221 0-19.391 6.801-37.193 18.141-51.159-9.003 13.078-12.279 25.921-12.279 42.999 0 44.857 36.364 81.221 81.221 81.221 25.464 0 46.188-8.723 61.079-27.062-14.645 21.273-39.162 35.222-66.941 35.222" fill="#424243"/></g></g></g></g></svg>